<svg width="212" height="75" viewBox="0 0 212 75" fill="none" xmlns="http://www.w3.org/2000/svg">
<path d="M149.607 38.9922C149.607 37.2012 149.936 35.5264 150.592 33.9678C151.262 32.3955 152.178 31.0283 153.34 29.8662C154.516 28.7041 155.896 27.7881 157.482 27.1182C159.082 26.4482 160.818 26.1133 162.691 26.1133C163.963 26.1133 165.05 26.2158 165.952 26.4209C166.854 26.626 167.593 26.8584 168.167 27.1182C168.741 27.3643 169.158 27.5967 169.418 27.8154C169.691 28.0205 169.828 28.1299 169.828 28.1436C169.828 28.2256 169.794 28.458 169.726 28.8408C169.671 29.21 169.603 29.6475 169.521 30.1533C169.452 30.6455 169.384 31.1582 169.315 31.6914C169.261 32.2109 169.233 32.6621 169.233 33.0449C169.233 33.1133 169.213 33.1885 169.172 33.2705C169.131 33.3525 169.021 33.3936 168.844 33.3936C168.68 33.3936 168.44 33.3389 168.126 33.2295C167.812 33.1064 167.422 32.9766 166.957 32.8398C166.506 32.7031 165.979 32.5801 165.378 32.4707C164.79 32.3477 164.134 32.2861 163.409 32.2861C162.507 32.2861 161.693 32.4502 160.969 32.7783C160.244 33.0928 159.622 33.5371 159.103 34.1113C158.583 34.6719 158.18 35.3418 157.893 36.1211C157.619 36.9004 157.482 37.7412 157.482 38.6436C157.482 39.5869 157.626 40.3936 157.913 41.0635C158.214 41.7197 158.61 42.2598 159.103 42.6836C159.595 43.0938 160.162 43.3945 160.805 43.5859C161.447 43.7773 162.124 43.873 162.835 43.873C163.655 43.873 164.482 43.7637 165.316 43.5449C166.15 43.3125 166.937 42.9912 167.675 42.5811C167.702 42.5674 167.757 42.5605 167.839 42.5605C167.907 42.5605 167.955 42.5947 167.982 42.6631C168.023 42.7314 168.044 42.8613 168.044 43.0527C168.044 43.4902 168.044 44.0234 168.044 44.6523C168.044 45.2676 168.037 45.8623 168.023 46.4365C168.023 46.9971 168.017 47.4756 168.003 47.8721C167.989 48.2686 167.976 48.4668 167.962 48.4668C167.47 48.7949 166.937 49.0615 166.362 49.2666C165.788 49.4717 165.193 49.6357 164.578 49.7588C163.977 49.8818 163.368 49.9639 162.753 50.0049C162.138 50.0459 161.543 50.0664 160.969 50.0664C159.369 50.0664 157.879 49.7998 156.498 49.2666C155.117 48.7334 153.914 47.9814 152.889 47.0107C151.877 46.04 151.077 44.8779 150.489 43.5244C149.901 42.1572 149.607 40.6465 149.607 38.9922Z" fill="#393939"/>
<path d="M138 40.3047C138.178 38.4316 138.355 36.5791 138.533 34.7471C138.711 32.915 138.868 31.0352 139.005 29.1074C139.032 28.6562 139.073 28.3486 139.128 28.1846C139.196 28.0068 139.354 27.8906 139.6 27.8359C140.762 27.6035 141.979 27.3643 143.25 27.1182C144.521 26.8584 145.752 26.5303 146.941 26.1338C146.982 26.1201 147.044 26.1133 147.126 26.1133C147.276 26.1133 147.352 26.168 147.352 26.2773L145.506 46.252C145.465 46.7031 145.417 47.0176 145.362 47.1953C145.308 47.3594 145.157 47.4688 144.911 47.5234C143.749 47.8789 142.573 48.2754 141.384 48.7129C140.194 49.1504 138.937 49.5947 137.61 50.0459C137.569 50.0596 137.508 50.0664 137.426 50.0664C137.275 50.0664 137.2 49.998 137.2 49.8613C137.2 49.8477 137.214 49.6631 137.241 49.3076C137.269 48.9521 137.303 48.4941 137.344 47.9336C137.398 47.373 137.453 46.7441 137.508 46.0469C137.562 45.3496 137.617 44.6523 137.672 43.9551C137.74 43.2578 137.802 42.5879 137.856 41.9453C137.911 41.3027 137.959 40.7559 138 40.3047ZM139.538 23.9395C139.579 23.3516 139.606 22.9004 139.62 22.5859C139.647 22.2715 139.668 22.0391 139.682 21.8887C139.695 21.7246 139.702 21.6221 139.702 21.5811C139.702 21.54 139.702 21.5127 139.702 21.499C139.716 21.4717 139.723 21.4307 139.723 21.376C139.736 21.3076 139.75 21.1777 139.764 20.9863C139.777 20.7812 139.798 20.4873 139.825 20.1045C139.853 19.7217 139.894 19.1953 139.948 18.5254C139.976 18.0742 140.017 17.7666 140.071 17.6025C140.14 17.4248 140.297 17.3086 140.543 17.2539C141.705 17.0215 142.922 16.7822 144.193 16.5361C145.465 16.2764 146.695 15.9482 147.885 15.5518C147.926 15.5381 147.987 15.5312 148.069 15.5312C148.11 15.6133 148.165 15.668 148.233 15.6953L148.295 15.7363L147.844 21.3555C147.803 21.8066 147.748 22.1211 147.68 22.2988C147.625 22.4766 147.481 22.5859 147.249 22.627C146.087 22.8457 144.911 23.085 143.722 23.3447C142.532 23.6045 141.274 23.8643 139.948 24.124C139.907 24.1377 139.846 24.1445 139.764 24.1445C139.613 24.1445 139.538 24.0762 139.538 23.9395Z" fill="#393939"/>
<path d="M126.126 31.6504C126.29 29.7773 126.42 27.9248 126.516 26.0928C126.625 24.2607 126.741 22.3809 126.864 20.4531C126.892 20.002 126.933 19.6943 126.987 19.5303C127.056 19.3525 127.213 19.2363 127.459 19.1816C128.73 18.9492 130.002 18.7168 131.273 18.4844C132.559 18.2383 133.844 17.917 135.129 17.5205C135.17 17.5068 135.231 17.5 135.313 17.5C135.464 17.5 135.539 17.5684 135.539 17.7051L132.873 46.9902V47.3389C132.873 47.4619 132.825 47.5645 132.729 47.6465C132.634 47.7148 132.408 47.7969 132.053 47.8926L126.68 49.8613C126.529 49.9297 126.331 49.998 126.085 50.0664C125.839 50.1484 125.6 50.1895 125.367 50.1895C125.176 50.1895 125.005 50.1416 124.854 50.0459C124.718 49.9502 124.649 49.7861 124.649 49.5537V49.4307C124.759 48.0498 124.861 46.7031 124.957 45.3906C125.066 44.0645 125.176 42.6973 125.285 41.2891C125.408 39.8809 125.538 38.3906 125.675 36.8184C125.812 35.2461 125.962 33.5234 126.126 31.6504Z" fill="#393939"/>
<path d="M102.686 38.9922C102.686 37.2012 103.014 35.5264 103.67 33.9678C104.34 32.3955 105.256 31.0283 106.418 29.8662C107.594 28.7041 108.975 27.7881 110.561 27.1182C112.16 26.4482 113.896 26.1133 115.77 26.1133C117.041 26.1133 118.128 26.2158 119.03 26.4209C119.933 26.626 120.671 26.8584 121.245 27.1182C121.819 27.3643 122.236 27.5967 122.496 27.8154C122.77 28.0205 122.906 28.1299 122.906 28.1436C122.906 28.2256 122.872 28.458 122.804 28.8408C122.749 29.21 122.681 29.6475 122.599 30.1533C122.53 30.6455 122.462 31.1582 122.394 31.6914C122.339 32.2109 122.312 32.6621 122.312 33.0449C122.312 33.1133 122.291 33.1885 122.25 33.2705C122.209 33.3525 122.1 33.3936 121.922 33.3936C121.758 33.3936 121.519 33.3389 121.204 33.2295C120.89 33.1064 120.5 32.9766 120.035 32.8398C119.584 32.7031 119.058 32.5801 118.456 32.4707C117.868 32.3477 117.212 32.2861 116.487 32.2861C115.585 32.2861 114.771 32.4502 114.047 32.7783C113.322 33.0928 112.7 33.5371 112.181 34.1113C111.661 34.6719 111.258 35.3418 110.971 36.1211C110.697 36.9004 110.561 37.7412 110.561 38.6436C110.561 39.5869 110.704 40.3936 110.991 41.0635C111.292 41.7197 111.688 42.2598 112.181 42.6836C112.673 43.0938 113.24 43.3945 113.883 43.5859C114.525 43.7773 115.202 43.873 115.913 43.873C116.733 43.873 117.561 43.7637 118.395 43.5449C119.229 43.3125 120.015 42.9912 120.753 42.5811C120.78 42.5674 120.835 42.5605 120.917 42.5605C120.985 42.5605 121.033 42.5947 121.061 42.6631C121.102 42.7314 121.122 42.8613 121.122 43.0527C121.122 43.4902 121.122 44.0234 121.122 44.6523C121.122 45.2676 121.115 45.8623 121.102 46.4365C121.102 46.9971 121.095 47.4756 121.081 47.8721C121.067 48.2686 121.054 48.4668 121.04 48.4668C120.548 48.7949 120.015 49.0615 119.44 49.2666C118.866 49.4717 118.271 49.6357 117.656 49.7588C117.055 49.8818 116.446 49.9639 115.831 50.0049C115.216 50.0459 114.621 50.0664 114.047 50.0664C112.447 50.0664 110.957 49.7998 109.576 49.2666C108.195 48.7334 106.992 47.9814 105.967 47.0107C104.955 46.04 104.155 44.8779 103.567 43.5244C102.979 42.1572 102.686 40.6465 102.686 38.9922Z" fill="#393939"/>
<path d="M91.8984 26.1133C93.1973 26.1133 94.373 26.3594 95.4258 26.8516C96.4922 27.3301 97.4014 27.959 98.1533 28.7383C98.9189 29.5039 99.5068 30.3652 99.917 31.3223C100.327 32.2793 100.532 33.2363 100.532 34.1934C100.532 35.041 100.272 35.8955 99.7529 36.7568C99.2334 37.6045 98.502 38.3701 97.5586 39.0537C96.6289 39.7373 95.5078 40.291 94.1953 40.7148C92.8828 41.1387 91.4404 41.3506 89.8682 41.3506C89.0479 41.3506 88.1865 41.2686 87.2842 41.1045C87.3389 41.6924 87.5098 42.1982 87.7969 42.6221C88.084 43.0459 88.4463 43.3945 88.8838 43.668C89.3213 43.9414 89.8135 44.1465 90.3604 44.2832C90.9209 44.4062 91.4951 44.4678 92.083 44.4678C92.7393 44.4678 93.3682 44.4131 93.9697 44.3037C94.585 44.1807 95.1729 44.0234 95.7334 43.832C96.2939 43.6406 96.834 43.4287 97.3535 43.1963C97.873 42.9639 98.3652 42.7314 98.8301 42.499C98.9531 42.4717 99.0557 42.4512 99.1377 42.4375C99.2334 42.4102 99.3223 42.3965 99.4043 42.3965C99.4043 42.3965 99.3975 42.5059 99.3838 42.7246C99.3838 42.9434 99.3838 43.251 99.3838 43.6475C99.3838 44.0439 99.377 44.5225 99.3633 45.083C99.3633 45.6436 99.3564 46.2656 99.3428 46.9492C99.3838 47.0176 99.4111 47.0859 99.4248 47.1543C99.4385 47.2227 99.4453 47.2773 99.4453 47.3184C99.4453 47.4824 99.2949 47.6602 98.9941 47.8516C98.6934 48.043 98.2969 48.2412 97.8047 48.4463C97.3262 48.6514 96.7725 48.8496 96.1436 49.041C95.5283 49.2324 94.8994 49.4033 94.2568 49.5537C93.6143 49.7178 92.9922 49.8408 92.3906 49.9229C91.7891 50.0186 91.2627 50.0664 90.8115 50.0664C89.335 50.0664 87.8994 49.8066 86.5049 49.2871C85.124 48.7812 83.8936 48.0498 82.8135 47.0928C81.7471 46.1357 80.8926 44.9736 80.25 43.6064C79.6074 42.2393 79.2861 40.7012 79.2861 38.9922C79.2861 37.2012 79.5938 35.5264 80.209 33.9678C80.8242 32.3955 81.6855 31.0283 82.793 29.8662C83.9141 28.7041 85.2471 27.7881 86.792 27.1182C88.3369 26.4482 90.0391 26.1133 91.8984 26.1133ZM91.6523 31.5684C91.0918 31.5684 90.5723 31.6914 90.0938 31.9375C89.6289 32.1699 89.1982 32.5117 88.8018 32.9629C88.4189 33.4004 88.084 33.9336 87.7969 34.5625C87.5098 35.1777 87.2773 35.8613 87.0996 36.6133C88.5078 36.3672 89.6768 36.1074 90.6064 35.834C91.5361 35.5605 92.2812 35.2871 92.8418 35.0137C93.4023 34.7266 93.7988 34.4463 94.0312 34.1729C94.2637 33.8857 94.3799 33.6123 94.3799 33.3525C94.3799 33.1064 94.2842 32.874 94.0928 32.6553C93.915 32.4365 93.6895 32.2451 93.416 32.0811C93.1426 31.917 92.8418 31.7939 92.5137 31.7119C92.1992 31.6162 91.9121 31.5684 91.6523 31.5684Z" fill="#147DF8"/>
<path d="M78.3633 32.3066C78.0762 32.2793 77.7549 32.252 77.3994 32.2246C77.0439 32.1836 76.668 32.1631 76.2715 32.1631C75.6699 32.1631 75.0547 32.2178 74.4258 32.3271C73.8105 32.4229 73.2363 32.6211 72.7031 32.9219C72.1699 33.2227 71.7119 33.6396 71.3291 34.1729C70.9463 34.6924 70.7002 35.3691 70.5908 36.2031C70.4951 37.2148 70.4131 38.0488 70.3447 38.7051C70.29 39.3477 70.249 39.8809 70.2217 40.3047C70.1943 40.7148 70.167 41.0498 70.1396 41.3096C70.126 41.5557 70.1123 41.7881 70.0986 42.0068C70.0986 42.0615 70.085 42.2119 70.0576 42.458C70.0439 42.7041 70.0166 42.9912 69.9756 43.3193C69.9346 43.6475 69.8936 44.0029 69.8525 44.3857C69.8252 44.7686 69.791 45.124 69.75 45.4521C69.709 45.7803 69.6748 46.0674 69.6475 46.3135C69.6338 46.5596 69.627 46.71 69.627 46.7646C69.627 46.874 69.627 46.9697 69.627 47.0518C69.6406 47.1201 69.6475 47.1885 69.6475 47.2568C69.6475 47.3662 69.5928 47.4619 69.4834 47.5439C69.3877 47.6123 69.1621 47.6943 68.8066 47.79L63.3721 49.7383C63.2217 49.793 63.0234 49.8613 62.7773 49.9434C62.5312 50.0254 62.292 50.0664 62.0596 50.0664C61.8682 50.0664 61.6973 50.0186 61.5469 49.9229C61.4102 49.8271 61.3418 49.6631 61.3418 49.4307L63.1055 29.1074C63.1465 28.6562 63.1943 28.3486 63.249 28.1846C63.3174 28.0068 63.4746 27.8906 63.7207 27.8359C64.9648 27.5898 66.25 27.3438 67.5762 27.0977C68.9023 26.8379 70.1875 26.5098 71.4316 26.1133C71.541 26.1133 71.6025 26.1338 71.6162 26.1748C71.6436 26.2021 71.6572 26.25 71.6572 26.3184C71.6572 26.3457 71.6504 26.3867 71.6367 26.4414C71.6367 26.4961 71.6162 26.6191 71.5752 26.8105C71.5479 27.002 71.5 27.2959 71.4316 27.6924C71.377 28.0752 71.2949 28.6152 71.1855 29.3125C71.8145 28.8203 72.5049 28.3691 73.2568 27.959C74.0225 27.5488 74.7881 27.2002 75.5537 26.9131C76.3193 26.6123 77.0576 26.3799 77.7686 26.2158C78.4795 26.0381 79.1016 25.9492 79.6348 25.9492L78.3633 32.3066Z" fill="#147DF8"/>
<path d="M57.0146 46.457C56.9736 46.9082 56.9189 47.2227 56.8506 47.4004C56.7822 47.5645 56.6318 47.6738 56.3994 47.7285C55.2373 48.0566 54.0205 48.3916 52.749 48.7334C51.4912 49.0615 50.2676 49.499 49.0781 50.0459C49.0371 50.0596 48.9756 50.0664 48.8936 50.0664C48.7842 50.0664 48.7158 50.0391 48.6885 49.9844C48.6748 49.9297 48.668 49.8682 48.668 49.7998C48.668 49.7725 48.668 49.7246 48.668 49.6562C48.6816 49.5879 48.7021 49.458 48.7295 49.2666C48.7568 49.0889 48.791 48.8359 48.832 48.5078C48.8867 48.1797 48.9551 47.7422 49.0371 47.1953C47.5059 48.1934 46.1455 48.918 44.9561 49.3691C43.7803 49.834 42.7344 50.0664 41.8184 50.0664C39.5352 50.0664 37.8672 49.5195 36.8145 48.4258C35.7754 47.3184 35.2559 45.6709 35.2559 43.4834C35.2559 43.0869 35.2627 42.6836 35.2764 42.2734C35.29 41.8496 35.3311 41.4189 35.3994 40.9814C35.5498 39.3682 35.6797 37.9873 35.7891 36.8389C35.8984 35.6768 35.9873 34.6924 36.0557 33.8857C36.124 33.0791 36.1787 32.4229 36.2197 31.917C36.2744 31.3975 36.3154 30.9668 36.3428 30.625C36.3838 30.2832 36.4111 30.0029 36.4248 29.7842C36.4521 29.5518 36.4795 29.3262 36.5068 29.1074C36.5615 28.6699 36.6094 28.3623 36.6504 28.1846C36.7051 28.0068 36.8623 27.8906 37.1221 27.8359C37.7646 27.7129 38.373 27.6035 38.9473 27.5078C39.5352 27.3984 40.1094 27.2891 40.6699 27.1797C41.2441 27.0566 41.8252 26.9268 42.4131 26.79C43.001 26.6533 43.623 26.4893 44.2793 26.2979C44.3066 26.2979 44.334 26.2979 44.3613 26.2979C44.3887 26.2842 44.416 26.2773 44.4434 26.2773C44.6074 26.2773 44.6895 26.332 44.6895 26.4414V26.4824C44.6348 26.9473 44.5869 27.3848 44.5459 27.7949C44.5049 28.2051 44.4639 28.6289 44.4229 29.0664C44.3818 29.4902 44.334 29.9482 44.2793 30.4404C44.2383 30.9326 44.1836 31.5068 44.1152 32.1631C44.0469 32.8057 43.9648 33.5508 43.8691 34.3984C43.7734 35.2461 43.6572 36.2305 43.5205 37.3516C43.4385 38.1719 43.3564 38.9922 43.2744 39.8125C43.1924 40.6191 43.1514 41.3711 43.1514 42.0684C43.1514 42.4512 43.1787 42.8066 43.2334 43.1348C43.2881 43.4492 43.3838 43.7227 43.5205 43.9551C43.6709 44.1738 43.8623 44.3447 44.0947 44.4678C44.3271 44.5908 44.6279 44.6523 44.9971 44.6523C45.2842 44.6523 45.6738 44.5908 46.166 44.4678C46.6582 44.3311 47.1504 44.1055 47.6426 43.791C48.1348 43.4629 48.5654 43.0391 48.9346 42.5195C49.3174 41.9863 49.5361 41.3164 49.5908 40.5098C49.6865 39.1562 49.7686 38.0283 49.8369 37.126C49.9189 36.21 49.9873 35.4443 50.042 34.8291C50.0967 34.2002 50.1445 33.6738 50.1855 33.25C50.2266 32.8262 50.2607 32.4229 50.2881 32.04C50.3291 31.6436 50.3633 31.2266 50.3906 30.7891C50.418 30.3379 50.4453 29.7773 50.4727 29.1074C50.5137 28.6562 50.5615 28.3486 50.6162 28.1846C50.6846 28.0068 50.8418 27.8906 51.0879 27.8359C52.332 27.5898 53.6035 27.3438 54.9023 27.0977C56.2012 26.8379 57.4727 26.5098 58.7168 26.1133C58.8262 26.1133 58.8877 26.1338 58.9014 26.1748C58.9287 26.2021 58.9424 26.25 58.9424 26.3184L57.0146 46.457Z" fill="#147DF8"/>
<path d="M19.3418 49.6562C19.4102 48.6582 19.4785 47.6943 19.5469 46.7646C19.6152 45.835 19.6768 44.9326 19.7314 44.0576L20.4697 34.3779C20.5518 33.6396 20.6201 32.9697 20.6748 32.3682C20.7295 31.7529 20.7705 31.1582 20.7979 30.584C20.8389 29.9961 20.873 29.4082 20.9004 28.8203C20.9414 28.2188 20.9824 27.5557 21.0234 26.8311C20.5723 26.8174 20.0938 26.8105 19.5879 26.8105C19.0957 26.8105 18.5762 26.8105 18.0293 26.8105H14.0713C13.9209 26.8105 13.8252 26.7559 13.7842 26.6465C13.7568 26.5234 13.7432 26.4141 13.7432 26.3184V26.1748L15.999 20.248L15.9785 20.166C15.9785 20.0977 16.0195 20.043 16.1016 20.002C16.1973 19.9473 16.4023 19.9062 16.7168 19.8789C18.6035 19.7695 20.4287 19.667 22.1924 19.5713C23.9697 19.4619 25.7197 19.3662 27.4424 19.2842C29.1787 19.2021 30.9082 19.1201 32.6309 19.0381C34.3672 18.9561 36.1514 18.8809 37.9834 18.8125C38.1475 18.8125 38.3184 18.833 38.4961 18.874C38.6875 18.915 38.7832 19.0654 38.7832 19.3252C38.7832 19.3525 38.7764 19.3799 38.7627 19.4072C38.749 19.4346 38.7422 19.4619 38.7422 19.4893C38.5234 20.0498 38.3184 20.583 38.127 21.0889C37.9492 21.5947 37.7715 22.0938 37.5938 22.5859C37.416 23.0781 37.2314 23.5771 37.04 24.083C36.8623 24.5889 36.6641 25.1221 36.4453 25.6826C36.4316 25.6963 36.4043 25.7646 36.3633 25.8877C36.3223 25.9971 36.2607 26.127 36.1787 26.2773C36.0967 26.4141 35.9873 26.5439 35.8506 26.667C35.7139 26.79 35.543 26.8584 35.3379 26.8721C35.2695 26.8584 35.2012 26.8516 35.1328 26.8516C35.0645 26.8516 34.9893 26.8516 34.9072 26.8516H29.4316C29.3633 27.5488 29.2949 28.2871 29.2266 29.0664C29.1719 29.8457 29.1035 30.6045 29.0215 31.3428L27.5244 47.3594C27.5107 47.4824 27.4834 47.6055 27.4424 47.7285C27.415 47.8516 27.3262 47.9404 27.1758 47.9951L21.3721 50.0869C21.2217 50.1416 21.0234 50.21 20.7773 50.292C20.5312 50.374 20.292 50.415 20.0596 50.415C19.8682 50.415 19.6973 50.3672 19.5469 50.2715C19.4102 50.1758 19.3418 49.998 19.3418 49.7383V49.6562Z" fill="#147DF8"/>
<path fill-rule="evenodd" clip-rule="evenodd" d="M181.948 24.9854L182.687 17.8691V17.7871C182.7 17.7598 182.707 17.7324 182.707 17.7051C182.707 17.4727 182.625 17.3154 182.461 17.2334C182.311 17.1514 182.146 17.1104 181.969 17.1104C181.736 17.1104 181.497 17.1582 181.251 17.2539C181.005 17.3496 180.807 17.4111 180.656 17.4385L174.894 18.8125C174.524 18.9082 174.285 19.0107 174.176 19.1201C174.08 19.2158 174.032 19.3252 174.032 19.4482C174.032 19.5166 174.039 19.585 174.053 19.6533C174.066 19.708 174.073 19.7695 174.073 19.8379L173.829 22.6354L181.35 30.7574C181.351 30.7475 181.352 30.7375 181.354 30.7275C181.449 29.8252 181.545 28.8818 181.641 27.8975C181.75 26.9131 181.853 25.9424 181.948 24.9854ZM183.087 32.6331L187.342 37.2273C187.552 37.0044 187.75 36.7929 187.937 36.5928C188.333 36.1689 188.675 35.7998 188.962 35.4854L195.381 28.3076C195.668 27.9795 195.812 27.7676 195.812 27.6719C195.812 27.5488 195.695 27.4873 195.463 27.4873H195.319C195.278 27.4873 195.237 27.4941 195.196 27.5078L186.952 28.082C186.925 28.1094 186.843 28.2119 186.706 28.3896C186.569 28.5537 186.392 28.7656 186.173 29.0254C185.954 29.2715 185.708 29.5586 185.435 29.8867C185.161 30.2148 184.881 30.543 184.594 30.8711L183.087 32.6331Z" fill="#393939"/>
<path d="M171.346 70.313L184.121 55.3297L203.886 60.1398C204.368 60.257 204.708 59.6778 204.371 59.3143L173.8 26.3031L170.467 69.9505C170.43 70.4331 171.032 70.6813 171.346 70.313Z" fill="#383838"/>
</svg>
