<svg width="212" height="70" viewBox="0 0 212 70" fill="none" xmlns="http://www.w3.org/2000/svg">
<path d="M149.607 37.4609C149.607 35.6699 149.936 33.9951 150.592 32.4365C151.262 30.8643 152.178 29.4971 153.34 28.335C154.516 27.1729 155.896 26.2568 157.482 25.5869C159.082 24.917 160.818 24.582 162.691 24.582C163.963 24.582 165.05 24.6846 165.952 24.8896C166.854 25.0947 167.593 25.3271 168.167 25.5869C168.741 25.833 169.158 26.0654 169.418 26.2842C169.691 26.4893 169.828 26.5986 169.828 26.6123C169.828 26.6943 169.794 26.9268 169.726 27.3096C169.671 27.6787 169.603 28.1162 169.521 28.6221C169.452 29.1143 169.384 29.627 169.315 30.1602C169.261 30.6797 169.233 31.1309 169.233 31.5137C169.233 31.582 169.213 31.6572 169.172 31.7393C169.131 31.8213 169.021 31.8623 168.844 31.8623C168.68 31.8623 168.44 31.8076 168.126 31.6982C167.812 31.5752 167.422 31.4453 166.957 31.3086C166.506 31.1719 165.979 31.0488 165.378 30.9395C164.79 30.8164 164.134 30.7549 163.409 30.7549C162.507 30.7549 161.693 30.9189 160.969 31.2471C160.244 31.5615 159.622 32.0059 159.103 32.5801C158.583 33.1406 158.18 33.8105 157.893 34.5898C157.619 35.3691 157.482 36.21 157.482 37.1123C157.482 38.0557 157.626 38.8623 157.913 39.5322C158.214 40.1885 158.61 40.7285 159.103 41.1523C159.595 41.5625 160.162 41.8633 160.805 42.0547C161.447 42.2461 162.124 42.3418 162.835 42.3418C163.655 42.3418 164.482 42.2324 165.316 42.0137C166.15 41.7812 166.937 41.46 167.675 41.0498C167.702 41.0361 167.757 41.0293 167.839 41.0293C167.907 41.0293 167.955 41.0635 167.982 41.1318C168.023 41.2002 168.044 41.3301 168.044 41.5215C168.044 41.959 168.044 42.4922 168.044 43.1211C168.044 43.7363 168.037 44.3311 168.023 44.9053C168.023 45.4658 168.017 45.9443 168.003 46.3408C167.989 46.7373 167.976 46.9355 167.962 46.9355C167.47 47.2637 166.937 47.5303 166.362 47.7354C165.788 47.9404 165.193 48.1045 164.578 48.2275C163.977 48.3506 163.368 48.4326 162.753 48.4736C162.138 48.5146 161.543 48.5352 160.969 48.5352C159.369 48.5352 157.879 48.2686 156.498 47.7354C155.117 47.2021 153.914 46.4502 152.889 45.4795C151.877 44.5088 151.077 43.3467 150.489 41.9932C149.901 40.626 149.607 39.1152 149.607 37.4609Z" fill="#393939"/>
<path d="M138 38.7734C138.178 36.9004 138.355 35.0479 138.533 33.2158C138.711 31.3838 138.868 29.5039 139.005 27.5762C139.032 27.125 139.073 26.8174 139.128 26.6533C139.196 26.4756 139.354 26.3594 139.6 26.3047C140.762 26.0723 141.979 25.833 143.25 25.5869C144.521 25.3271 145.752 24.999 146.941 24.6025C146.982 24.5889 147.044 24.582 147.126 24.582C147.276 24.582 147.352 24.6367 147.352 24.7461L145.506 44.7207C145.465 45.1719 145.417 45.4863 145.362 45.6641C145.308 45.8281 145.157 45.9375 144.911 45.9922C143.749 46.3477 142.573 46.7441 141.384 47.1816C140.194 47.6191 138.937 48.0635 137.61 48.5146C137.569 48.5283 137.508 48.5352 137.426 48.5352C137.275 48.5352 137.2 48.4668 137.2 48.3301C137.2 48.3164 137.214 48.1318 137.241 47.7764C137.269 47.4209 137.303 46.9629 137.344 46.4023C137.398 45.8418 137.453 45.2129 137.508 44.5156C137.562 43.8184 137.617 43.1211 137.672 42.4238C137.74 41.7266 137.802 41.0566 137.856 40.4141C137.911 39.7715 137.959 39.2246 138 38.7734ZM139.538 22.4082C139.579 21.8203 139.606 21.3691 139.62 21.0547C139.647 20.7402 139.668 20.5078 139.682 20.3574C139.695 20.1934 139.702 20.0908 139.702 20.0498C139.702 20.0088 139.702 19.9814 139.702 19.9678C139.716 19.9404 139.723 19.8994 139.723 19.8447C139.736 19.7764 139.75 19.6465 139.764 19.4551C139.777 19.25 139.798 18.9561 139.825 18.5732C139.853 18.1904 139.894 17.6641 139.948 16.9941C139.976 16.543 140.017 16.2354 140.071 16.0713C140.14 15.8936 140.297 15.7773 140.543 15.7227C141.705 15.4902 142.922 15.251 144.193 15.0049C145.465 14.7451 146.695 14.417 147.885 14.0205C147.926 14.0068 147.987 14 148.069 14C148.11 14.082 148.165 14.1367 148.233 14.1641L148.295 14.2051L147.844 19.8242C147.803 20.2754 147.748 20.5898 147.68 20.7676C147.625 20.9453 147.481 21.0547 147.249 21.0957C146.087 21.3145 144.911 21.5537 143.722 21.8135C142.532 22.0732 141.274 22.333 139.948 22.5928C139.907 22.6064 139.846 22.6133 139.764 22.6133C139.613 22.6133 139.538 22.5449 139.538 22.4082Z" fill="#393939"/>
<path d="M126.126 30.1191C126.29 28.2461 126.42 26.3936 126.516 24.5615C126.625 22.7295 126.741 20.8496 126.864 18.9219C126.892 18.4707 126.933 18.1631 126.987 17.999C127.056 17.8213 127.213 17.7051 127.459 17.6504C128.73 17.418 130.002 17.1855 131.273 16.9531C132.559 16.707 133.844 16.3857 135.129 15.9893C135.17 15.9756 135.231 15.9688 135.313 15.9688C135.464 15.9688 135.539 16.0371 135.539 16.1738L132.873 45.459V45.8076C132.873 45.9307 132.825 46.0332 132.729 46.1152C132.634 46.1836 132.408 46.2656 132.053 46.3613L126.68 48.3301C126.529 48.3984 126.331 48.4668 126.085 48.5352C125.839 48.6172 125.6 48.6582 125.367 48.6582C125.176 48.6582 125.005 48.6104 124.854 48.5146C124.718 48.4189 124.649 48.2549 124.649 48.0225V47.8994C124.759 46.5186 124.861 45.1719 124.957 43.8594C125.066 42.5332 125.176 41.166 125.285 39.7578C125.408 38.3496 125.538 36.8594 125.675 35.2871C125.812 33.7148 125.962 31.9922 126.126 30.1191Z" fill="#393939"/>
<path d="M102.686 37.4609C102.686 35.6699 103.014 33.9951 103.67 32.4365C104.34 30.8643 105.256 29.4971 106.418 28.335C107.594 27.1729 108.975 26.2568 110.561 25.5869C112.16 24.917 113.896 24.582 115.77 24.582C117.041 24.582 118.128 24.6846 119.03 24.8896C119.933 25.0947 120.671 25.3271 121.245 25.5869C121.819 25.833 122.236 26.0654 122.496 26.2842C122.77 26.4893 122.906 26.5986 122.906 26.6123C122.906 26.6943 122.872 26.9268 122.804 27.3096C122.749 27.6787 122.681 28.1162 122.599 28.6221C122.53 29.1143 122.462 29.627 122.394 30.1602C122.339 30.6797 122.312 31.1309 122.312 31.5137C122.312 31.582 122.291 31.6572 122.25 31.7393C122.209 31.8213 122.1 31.8623 121.922 31.8623C121.758 31.8623 121.519 31.8076 121.204 31.6982C120.89 31.5752 120.5 31.4453 120.035 31.3086C119.584 31.1719 119.058 31.0488 118.456 30.9395C117.868 30.8164 117.212 30.7549 116.487 30.7549C115.585 30.7549 114.771 30.9189 114.047 31.2471C113.322 31.5615 112.7 32.0059 112.181 32.5801C111.661 33.1406 111.258 33.8105 110.971 34.5898C110.697 35.3691 110.561 36.21 110.561 37.1123C110.561 38.0557 110.704 38.8623 110.991 39.5322C111.292 40.1885 111.688 40.7285 112.181 41.1523C112.673 41.5625 113.24 41.8633 113.883 42.0547C114.525 42.2461 115.202 42.3418 115.913 42.3418C116.733 42.3418 117.561 42.2324 118.395 42.0137C119.229 41.7812 120.015 41.46 120.753 41.0498C120.78 41.0361 120.835 41.0293 120.917 41.0293C120.985 41.0293 121.033 41.0635 121.061 41.1318C121.102 41.2002 121.122 41.3301 121.122 41.5215C121.122 41.959 121.122 42.4922 121.122 43.1211C121.122 43.7363 121.115 44.3311 121.102 44.9053C121.102 45.4658 121.095 45.9443 121.081 46.3408C121.067 46.7373 121.054 46.9355 121.04 46.9355C120.548 47.2637 120.015 47.5303 119.44 47.7354C118.866 47.9404 118.271 48.1045 117.656 48.2275C117.055 48.3506 116.446 48.4326 115.831 48.4736C115.216 48.5146 114.621 48.5352 114.047 48.5352C112.447 48.5352 110.957 48.2686 109.576 47.7354C108.195 47.2021 106.992 46.4502 105.967 45.4795C104.955 44.5088 104.155 43.3467 103.567 41.9932C102.979 40.626 102.686 39.1152 102.686 37.4609Z" fill="#393939"/>
<path d="M93.5391 24.582C94.8379 24.582 96.0137 24.8281 97.0664 25.3203C98.1328 25.7988 99.042 26.4277 99.7939 27.207C100.56 27.9727 101.147 28.834 101.558 29.791C101.968 30.748 102.173 31.7051 102.173 32.6621C102.173 33.5098 101.913 34.3643 101.394 35.2256C100.874 36.0732 100.143 36.8389 99.1992 37.5225C98.2695 38.2061 97.1484 38.7598 95.8359 39.1836C94.5234 39.6074 93.0811 39.8193 91.5088 39.8193C90.6885 39.8193 89.8271 39.7373 88.9248 39.5732C88.9795 40.1611 89.1504 40.667 89.4375 41.0908C89.7246 41.5146 90.0869 41.8633 90.5244 42.1367C90.9619 42.4102 91.4541 42.6152 92.001 42.752C92.5615 42.875 93.1357 42.9365 93.7236 42.9365C94.3799 42.9365 95.0088 42.8818 95.6104 42.7725C96.2256 42.6494 96.8135 42.4922 97.374 42.3008C97.9346 42.1094 98.4746 41.8975 98.9941 41.665C99.5137 41.4326 100.006 41.2002 100.471 40.9678C100.594 40.9404 100.696 40.9199 100.778 40.9062C100.874 40.8789 100.963 40.8652 101.045 40.8652C101.045 40.8652 101.038 40.9746 101.024 41.1934C101.024 41.4121 101.024 41.7197 101.024 42.1162C101.024 42.5127 101.018 42.9912 101.004 43.5518C101.004 44.1123 100.997 44.7344 100.983 45.418C101.024 45.4863 101.052 45.5547 101.065 45.623C101.079 45.6914 101.086 45.7461 101.086 45.7871C101.086 45.9512 100.936 46.1289 100.635 46.3203C100.334 46.5117 99.9375 46.71 99.4453 46.915C98.9668 47.1201 98.4131 47.3184 97.7842 47.5098C97.1689 47.7012 96.54 47.8721 95.8975 48.0225C95.2549 48.1865 94.6328 48.3096 94.0312 48.3916C93.4297 48.4873 92.9033 48.5352 92.4521 48.5352C90.9756 48.5352 89.54 48.2754 88.1455 47.7559C86.7646 47.25 85.5342 46.5186 84.4541 45.5615C83.3877 44.6045 82.5332 43.4424 81.8906 42.0752C81.248 40.708 80.9268 39.1699 80.9268 37.4609C80.9268 35.6699 81.2344 33.9951 81.8496 32.4365C82.4648 30.8643 83.3262 29.4971 84.4336 28.335C85.5547 27.1729 86.8877 26.2568 88.4326 25.5869C89.9775 24.917 91.6797 24.582 93.5391 24.582ZM93.293 30.0371C92.7324 30.0371 92.2129 30.1602 91.7344 30.4062C91.2695 30.6387 90.8389 30.9805 90.4424 31.4316C90.0596 31.8691 89.7246 32.4023 89.4375 33.0312C89.1504 33.6465 88.918 34.3301 88.7402 35.082C90.1484 34.8359 91.3174 34.5762 92.2471 34.3027C93.1768 34.0293 93.9219 33.7559 94.4824 33.4824C95.043 33.1953 95.4395 32.915 95.6719 32.6416C95.9043 32.3545 96.0205 32.0811 96.0205 31.8213C96.0205 31.5752 95.9248 31.3428 95.7334 31.124C95.5557 30.9053 95.3301 30.7139 95.0566 30.5498C94.7832 30.3857 94.4824 30.2627 94.1543 30.1807C93.8398 30.085 93.5527 30.0371 93.293 30.0371Z" fill="#147DF8"/>
<path d="M76.7432 44.9258C76.7021 45.377 76.6475 45.6914 76.5791 45.8691C76.5107 46.0332 76.3604 46.1426 76.1279 46.1973C74.9658 46.5254 73.749 46.8604 72.4775 47.2021C71.2197 47.5303 69.9961 47.9678 68.8066 48.5146C68.7656 48.5283 68.7041 48.5352 68.6221 48.5352C68.5127 48.5352 68.4443 48.5078 68.417 48.4531C68.4033 48.3984 68.3965 48.3369 68.3965 48.2686C68.3965 48.2412 68.3965 48.1934 68.3965 48.125C68.4102 48.0566 68.4307 47.9268 68.458 47.7354C68.4854 47.5576 68.5195 47.3047 68.5605 46.9766C68.6152 46.6484 68.6836 46.2109 68.7656 45.6641C67.2344 46.6621 65.874 47.3867 64.6846 47.8379C63.5088 48.3027 62.4629 48.5352 61.5469 48.5352C59.2637 48.5352 57.5957 47.9883 56.543 46.8945C55.5039 45.7871 54.9844 44.1396 54.9844 41.9521C54.9844 41.5557 54.9912 41.1523 55.0049 40.7422C55.0186 40.3184 55.0596 39.8877 55.1279 39.4502C55.2783 37.8369 55.4082 36.4561 55.5176 35.3076C55.627 34.1455 55.7158 33.1611 55.7842 32.3545C55.8525 31.5479 55.9072 30.8916 55.9482 30.3857C56.0029 29.8662 56.0439 29.4355 56.0713 29.0938C56.1123 28.752 56.1396 28.4717 56.1533 28.2529C56.1807 28.0205 56.208 27.7949 56.2354 27.5762C56.29 27.1387 56.3379 26.8311 56.3789 26.6533C56.4336 26.4756 56.5908 26.3594 56.8506 26.3047C57.4932 26.1816 58.1016 26.0723 58.6758 25.9766C59.2637 25.8672 59.8379 25.7578 60.3984 25.6484C60.9727 25.5254 61.5537 25.3955 62.1416 25.2588C62.7295 25.1221 63.3516 24.958 64.0078 24.7666C64.0352 24.7666 64.0625 24.7666 64.0898 24.7666C64.1172 24.7529 64.1445 24.7461 64.1719 24.7461C64.3359 24.7461 64.418 24.8008 64.418 24.9102V24.9512C64.3633 25.416 64.3154 25.8535 64.2744 26.2637C64.2334 26.6738 64.1924 27.0977 64.1514 27.5352C64.1104 27.959 64.0625 28.417 64.0078 28.9092C63.9668 29.4014 63.9121 29.9756 63.8438 30.6318C63.7754 31.2744 63.6934 32.0195 63.5977 32.8672C63.502 33.7148 63.3857 34.6992 63.249 35.8203C63.167 36.6406 63.085 37.4609 63.0029 38.2812C62.9209 39.0879 62.8799 39.8398 62.8799 40.5371C62.8799 40.9199 62.9072 41.2754 62.9619 41.6035C63.0166 41.918 63.1123 42.1914 63.249 42.4238C63.3994 42.6426 63.5908 42.8135 63.8232 42.9365C64.0557 43.0596 64.3564 43.1211 64.7256 43.1211C65.0127 43.1211 65.4023 43.0596 65.8945 42.9365C66.3867 42.7998 66.8789 42.5742 67.3711 42.2598C67.8633 41.9316 68.2939 41.5078 68.6631 40.9883C69.0459 40.4551 69.2646 39.7852 69.3193 38.9785C69.415 37.625 69.4971 36.4971 69.5654 35.5947C69.6475 34.6787 69.7158 33.9131 69.7705 33.2979C69.8252 32.6689 69.873 32.1426 69.9141 31.7188C69.9551 31.2949 69.9893 30.8916 70.0166 30.5088C70.0576 30.1123 70.0918 29.6953 70.1191 29.2578C70.1465 28.8066 70.1738 28.2461 70.2012 27.5762C70.2422 27.125 70.29 26.8174 70.3447 26.6533C70.4131 26.4756 70.5703 26.3594 70.8164 26.3047C72.0605 26.0586 73.332 25.8125 74.6309 25.5664C75.9297 25.3066 77.2012 24.9785 78.4453 24.582C78.5547 24.582 78.6162 24.6025 78.6299 24.6436C78.6572 24.6709 78.6709 24.7188 78.6709 24.7871L76.7432 44.9258Z" fill="#147DF8"/>
<path d="M53.3027 30.7754C53.0156 30.748 52.6943 30.7207 52.3389 30.6934C51.9834 30.6523 51.6074 30.6318 51.2109 30.6318C50.6094 30.6318 49.9941 30.6865 49.3652 30.7959C48.75 30.8916 48.1758 31.0898 47.6426 31.3906C47.1094 31.6914 46.6514 32.1084 46.2686 32.6416C45.8857 33.1611 45.6396 33.8379 45.5303 34.6719C45.4346 35.6836 45.3525 36.5176 45.2842 37.1738C45.2295 37.8164 45.1885 38.3496 45.1611 38.7734C45.1338 39.1836 45.1064 39.5186 45.0791 39.7783C45.0654 40.0244 45.0518 40.2568 45.0381 40.4756C45.0381 40.5303 45.0244 40.6807 44.9971 40.9268C44.9834 41.1729 44.9561 41.46 44.915 41.7881C44.874 42.1162 44.833 42.4717 44.792 42.8545C44.7646 43.2373 44.7305 43.5928 44.6895 43.9209C44.6484 44.249 44.6143 44.5361 44.5869 44.7822C44.5732 45.0283 44.5664 45.1787 44.5664 45.2334C44.5664 45.3428 44.5664 45.4385 44.5664 45.5205C44.5801 45.5889 44.5869 45.6572 44.5869 45.7256C44.5869 45.835 44.5322 45.9307 44.4229 46.0127C44.3271 46.0811 44.1016 46.1631 43.7461 46.2588L38.3115 48.207C38.1611 48.2617 37.9629 48.3301 37.7168 48.4121C37.4707 48.4941 37.2314 48.5352 36.999 48.5352C36.8076 48.5352 36.6367 48.4873 36.4863 48.3916C36.3496 48.2959 36.2812 48.1318 36.2812 47.8994L38.0449 27.5762C38.0859 27.125 38.1338 26.8174 38.1885 26.6533C38.2568 26.4756 38.4141 26.3594 38.6602 26.3047C39.9043 26.0586 41.1895 25.8125 42.5156 25.5664C43.8418 25.3066 45.127 24.9785 46.3711 24.582C46.4805 24.582 46.542 24.6025 46.5557 24.6436C46.583 24.6709 46.5967 24.7188 46.5967 24.7871C46.5967 24.8145 46.5898 24.8555 46.5762 24.9102C46.5762 24.9648 46.5557 25.0879 46.5146 25.2793C46.4873 25.4707 46.4395 25.7646 46.3711 26.1611C46.3164 26.5439 46.2344 27.084 46.125 27.7812C46.7539 27.2891 47.4443 26.8379 48.1963 26.4277C48.9619 26.0176 49.7275 25.6689 50.4932 25.3818C51.2588 25.0811 51.9971 24.8486 52.708 24.6846C53.4189 24.5068 54.041 24.418 54.5742 24.418L53.3027 30.7754Z" fill="#147DF8"/>
<path d="M19.3418 48.125C19.4102 47.127 19.4785 46.1631 19.5469 45.2334C19.6152 44.3037 19.6768 43.4014 19.7314 42.5264L20.4697 32.8467C20.5518 32.1084 20.6201 31.4385 20.6748 30.8369C20.7295 30.2217 20.7705 29.627 20.7979 29.0527C20.8389 28.4648 20.873 27.877 20.9004 27.2891C20.9414 26.6875 20.9824 26.0244 21.0234 25.2998C20.5723 25.2861 20.0938 25.2793 19.5879 25.2793C19.0957 25.2793 18.5762 25.2793 18.0293 25.2793H14.0713C13.9209 25.2793 13.8252 25.2246 13.7842 25.1152C13.7568 24.9922 13.7432 24.8828 13.7432 24.7871V24.6436L15.999 18.7168L15.9785 18.6348C15.9785 18.5664 16.0195 18.5117 16.1016 18.4707C16.1973 18.416 16.4023 18.375 16.7168 18.3477C18.6035 18.2383 20.4287 18.1357 22.1924 18.04C23.9697 17.9307 25.7197 17.835 27.4424 17.7529C29.1787 17.6709 30.9082 17.5889 32.6309 17.5068C34.3672 17.4248 36.1514 17.3496 37.9834 17.2812C38.1475 17.2812 38.3184 17.3018 38.4961 17.3428C38.6875 17.3838 38.7832 17.5342 38.7832 17.7939C38.7832 17.8213 38.7764 17.8486 38.7627 17.876C38.749 17.9033 38.7422 17.9307 38.7422 17.958C38.5234 18.5186 38.3184 19.0518 38.127 19.5576C37.9492 20.0635 37.7715 20.5625 37.5938 21.0547C37.416 21.5469 37.2314 22.0459 37.04 22.5518C36.8623 23.0576 36.6641 23.5908 36.4453 24.1514C36.4316 24.165 36.4043 24.2334 36.3633 24.3564C36.3223 24.4658 36.2607 24.5957 36.1787 24.7461C36.0967 24.8828 35.9873 25.0127 35.8506 25.1357C35.7139 25.2588 35.543 25.3271 35.3379 25.3408C35.2695 25.3271 35.2012 25.3203 35.1328 25.3203C35.0645 25.3203 34.9893 25.3203 34.9072 25.3203H29.4316C29.3633 26.0176 29.2949 26.7559 29.2266 27.5352C29.1719 28.3145 29.1035 29.0732 29.0215 29.8115L27.5244 45.8281C27.5107 45.9512 27.4834 46.0742 27.4424 46.1973C27.415 46.3203 27.3262 46.4092 27.1758 46.4639L21.3721 48.5557C21.2217 48.6104 21.0234 48.6787 20.7773 48.7607C20.5312 48.8428 20.292 48.8838 20.0596 48.8838C19.8682 48.8838 19.6973 48.8359 19.5469 48.7402C19.4102 48.6445 19.3418 48.4668 19.3418 48.207V48.125Z" fill="#147DF8"/>
<path fill-rule="evenodd" clip-rule="evenodd" d="M181.948 23.4541L182.687 16.3379V16.2559C182.7 16.2285 182.707 16.2012 182.707 16.1738C182.707 15.9414 182.625 15.7842 182.461 15.7021C182.311 15.6201 182.146 15.5791 181.969 15.5791C181.736 15.5791 181.497 15.627 181.251 15.7227C181.005 15.8184 180.807 15.8799 180.656 15.9072L174.894 17.2812C174.524 17.377 174.285 17.4795 174.176 17.5889C174.08 17.6846 174.032 17.7939 174.032 17.917C174.032 17.9854 174.039 18.0537 174.053 18.1221C174.066 18.1768 174.073 18.2383 174.073 18.3066L173.829 21.1041L181.35 29.2262C181.351 29.2162 181.352 29.2063 181.354 29.1963C181.449 28.2939 181.545 27.3506 181.641 26.3662C181.75 25.3818 181.853 24.4111 181.948 23.4541ZM183.087 31.1018L187.342 35.6961C187.552 35.4732 187.75 35.2616 187.937 35.0615C188.333 34.6377 188.675 34.2686 188.962 33.9541L195.381 26.7764C195.668 26.4482 195.812 26.2363 195.812 26.1406C195.812 26.0176 195.695 25.9561 195.463 25.9561H195.319C195.278 25.9561 195.237 25.9629 195.196 25.9766L186.952 26.5508C186.925 26.5781 186.843 26.6807 186.706 26.8584C186.569 27.0225 186.392 27.2344 186.173 27.4941C185.954 27.7402 185.708 28.0273 185.435 28.3555C185.161 28.6836 184.881 29.0117 184.594 29.3398L183.087 31.1018Z" fill="#393939"/>
<path d="M172.571 52.7468L180.458 43.4961L192.635 46.4596C193.117 46.5768 193.457 45.9976 193.12 45.6341L173.8 24.7719L171.692 52.3844C171.655 52.8669 172.257 53.1151 172.571 52.7468Z" fill="#383838"/>
</svg>
